<svg version="1.2" baseProfile="tiny-ps" xmlns="http://www.w3.org/2000/svg" viewBox="0 0 1660 879" width="1660" height="879">
	<title>New Project</title>
	<style>
		tspan { white-space:pre }
		.shp0 { fill: none;stroke: #121212;stroke-width: 52 } 
		.shp1 { fill: none;stroke: #ffffff;stroke-width: 9.508;stroke-dasharray: 38,48 } 
	</style>
	<path id="Shape 2 copy 2" class="shp0" d="M2 28.11L467 32C467 32 601 23.5 641 121.55C675.03 204.99 639 279.11 568 316.16C466.19 369.3 460.5 476.11 501 533.11C545.22 595.35 641 621.05 718 567.11C830.16 488.53 920 217.11 1088 273.11C1216.44 315.92 1231 495.11 1078 556.11C1014.74 581.33 966 622.11 959 685.11C949.76 768.28 1019 862.11 1125 850.11C1213.05 840.14 1665 782.22 1665 782.22" />
	<path id="Shape 2 copy" class="shp1" d="M2 28.11L467 32C467 32 601 23.5 641 121.55C675.03 204.99 639 279.11 568 316.16C466.19 369.3 460.5 476.11 501 533.11C545.22 595.35 641 621.05 718 567.11C830.16 488.53 920 217.11 1088 273.11C1216.44 315.92 1231 495.11 1078 556.11C1014.74 581.33 966 622.11 959 685.11C949.76 768.28 1019 862.11 1125 850.11C1213.05 840.14 1665 782.22 1665 782.22" />
</svg>